<?xml version="1.0" encoding="UTF-8" standalone="no"?><!DOCTYPE svg PUBLIC "-//W3C//DTD SVG 1.1//EN" "http://www.w3.org/Graphics/SVG/1.1/DTD/svg11.dtd"><svg width="100%" height="100%" viewBox="0 0 9934 14044" version="1.1" xmlns="http://www.w3.org/2000/svg" xmlns:xlink="http://www.w3.org/1999/xlink" xml:space="preserve" xmlns:serif="http://www.serif.com/" style="fill-rule:evenodd;clip-rule:evenodd;stroke-linecap:round;stroke-linejoin:round;stroke-miterlimit:1.5;"><g id="THICK"><path d="M4968.97,6017.01c376.977,-33.809 1009.51,206.948 1686.94,208.712c800.933,2.086 1564.34,-369.752 1905.67,-184.27c895.92,486.852 735.62,2010.4 735.62,3226.06c-0,1678.81 -1183.52,3041.79 -2641.29,3041.79c-638.94,-0 -1225.2,-261.838 -1682.2,-697.34l932.161,-2318.44c0,1678.81 -1183.52,3041.79 -2641.29,3041.79c-1457.77,-0 -2641.29,-1362.98 -2641.29,-3041.79c-0,-1234.93 -137.974,-2728.4 780.921,-3204.74c330.286,-171.212 1064.33,160.87 1860.37,162.943c669.02,1.742 1311.86,-257.411 1704.39,-234.723Zm-84.078,-3784.35c425.914,-440.319 1049.56,-718.269 1743.95,-718.269c1282.12,-0 2323.04,947.567 2323.04,2114.7c0,1167.14 -1040.92,2114.7 -2323.04,2114.7c-692.857,-0 -1315.28,-276.721 -1741.14,-715.368c-425.914,440.318 -1049.56,718.269 -1743.95,718.269c-1282.12,-0 -2323.04,-947.568 -2323.04,-2114.7c0,-1167.14 1040.92,-2114.7 2323.04,-2114.7c692.857,0 1315.28,276.72 1741.14,715.368Z" style="fill:#00d1ce;stroke:#fff;stroke-width:166.67px;"/><path d="M3652.63,6190.3c352.651,57.301 806.439,186.037 1283.17,187.333c712.277,1.935 1393.93,-314.542 1756.93,-221.704c420.387,41.009 960.968,239.735 1487.42,573.283c935.257,592.552 1579.35,1212.06 1202.42,1774.43c-315.099,470.127 -1058.69,278.133 -1876.91,-186.472c3.29,382.463 -10.275,772.873 -10.275,1136.1c0,1697.49 -1146.91,3075.64 -2559.58,3075.64c-1412.67,0 -2559.58,-1378.15 -2559.58,-3075.64c0,-352.375 -10.648,-725.569 -5.923,-1090.5c-795.506,441.131 -1512.03,613.592 -1819.79,154.414c-376.93,-562.379 267.16,-1181.88 1202.42,-1774.43c722.205,-457.569 1470.99,-661.418 1899.7,-552.457Zm1299.5,-4333.56c1242.45,-0 2251.17,958.112 2251.17,2138.24c-0,1180.12 -1008.72,2138.24 -2251.17,2138.24c-1242.45,-0 -2251.17,-958.112 -2251.17,-2138.24c-0,-1180.12 1008.72,-2138.24 2251.17,-2138.24Z" style="fill:#008282;stroke:#fffefe;stroke-width:166.67px;"/></g></svg>